<?xml version="1.0" encoding="utf-8" ?><svg xmlns="http://www.w3.org/2000/svg" xmlns:xlink="http://www.w3.org/1999/xlink" width="1024" height="1024" viewBox="0 0 1024 1024"><path fill="#ff6b35" d="M0 0L1024 0L1024 1024L0 1024L0 0Z"/><path fill="#FEFEFE" d="M739.628 604.484C733.068 612.865 724.746 619.703 715.251 624.513C707.37 628.535 698.039 631.054 689.26 632.051C678.662 633.254 555.874 634.025 552.361 632.716C550.683 632.092 549.027 630.598 548.5 628.846C546.645 622.674 562.424 614.496 565.141 607.752C565.501 606.86 565.619 605.976 565.632 605.018C565.803 592.105 565.493 579.128 565.488 566.207L565.457 472.414L565.464 434.781C565.467 431.927 565.635 421.175 565.286 418.858C562.944 409.821 552.107 406.497 548.356 398.388C547.064 395.594 549.847 391.602 552.434 391.426C564.562 390.603 577.103 391.07 589.324 391.087L640.685 391.027C665.778 391.007 684.009 389.157 706.53 402.202L710.108 404.817C733.309 423.203 744.103 452.396 733.89 481.183C729.949 492.292 723.44 499.972 714.779 507.812C718.848 510.175 722.731 512.445 726.64 515.083C755.013 534.226 760.661 569.582 743.632 598.493C743.161 599.29 742.682 600.083 742.195 600.87L739.628 604.484Z"/><path fill="#ff6b35" d="M631.295 531.75L662.818 531.64C669.183 531.642 676.219 531.416 682.486 532.226C712.571 536.116 717.155 580.991 686.911 589.373C676.078 591.659 658.141 589.915 646.722 590.526C640.46 590.861 617.06 591.347 612.413 588.646C610.153 584.743 611.536 565.534 611.276 559.655C611.002 553.471 610.978 545.414 611.261 539.211C611.617 531.427 617.208 531.64 623.27 531.752C625.939 531.728 628.658 531.744 631.295 531.75Z"/><path fill="#ff6b35" d="M615.08 432.172C615.911 432.14 616.742 432.116 617.573 432.099C626.073 431.967 634.767 431.995 643.287 432.038C652.195 432.605 663.669 430.643 672.19 433.1C696.388 440.079 699.552 467.915 683.302 483.887C682.75 484.347 682.18 484.785 681.593 485.201C678.381 487.505 674.699 489.07 670.811 489.784C664.6 490.972 615.02 491.724 612.491 488.004C612.062 486.506 611.399 483.549 611.407 481.649C611.471 466.572 610.708 450.908 611.607 435.924C611.718 434.081 613.687 432.897 615.08 432.172Z"/><path fill="#FEFEFE" d="M281.401 391.096C295.102 390.731 308.903 391.071 322.618 391.032C332.815 391.003 343.376 390.422 353.531 391.111C355.682 391.256 358.333 391.491 360.278 392.427C361.693 393.107 362.965 394.68 363.398 396.193C366.314 406.375 348.163 412.564 344.103 420.809C342.581 423.901 341.694 427.704 341.296 431.123C340.333 439.402 339.772 479.67 342.023 485.947C342.725 487.907 343.698 489.741 345.677 490.617C347.969 491.631 350.711 491.932 353.194 492.07C366.119 492.79 379.447 492.05 392.414 492.047C405.558 492.045 418.979 492.785 432.079 492.047C433.974 491.94 436.443 491.738 438.129 490.829C439.608 490.031 440.211 488.341 440.634 486.804C442.535 479.908 442.039 437.357 440.736 429.646C440.022 425.423 438.9 421.778 436.171 418.377C431.393 412.423 419.924 406.974 417.144 400.546C416.381 398.78 416.4 396.965 417.227 395.218C417.969 393.651 418.944 392.639 420.635 392.134C422.645 391.533 424.802 391.284 426.894 391.189C440.729 390.565 454.856 391.129 468.721 391.12C478.699 391.113 489.12 390.381 499.033 391.091C501.02 391.233 503.222 391.567 504.961 392.607C506.118 393.3 506.984 394.288 507.224 395.656C508.544 403.201 489.543 414.441 485.57 421.834C483.806 425.116 483.305 429.722 483.08 433.406C482.441 443.871 482.867 454.607 482.875 465.098L482.921 523.244L482.902 569.591C482.9 578.716 482.329 591.894 484.017 600.771C486.563 613.713 500.637 616.037 505.523 626.522C507.476 630.712 500.63 632.942 497.625 633.418L451.905 633.412C443.343 633.443 434.832 633.562 426.219 633.34C422.034 633.243 416.166 631.926 416.713 626.422C417.264 620.866 426.561 615.887 430.823 612.735C436.72 608.886 440.624 602.137 441.005 594.642C441.81 578.812 442.284 560.778 440.407 545.004C439.636 538.526 433.429 533.701 427.074 533.477C402.565 532.612 377.743 533.192 353.21 533.538C344.518 534.393 340.755 540.659 340.827 549.221C340.967 565.654 339.276 582.766 341.883 599.097C343.151 607.038 350.613 612.869 357.782 616.882C364.441 620.61 372.947 629.92 360.509 633.434C336.134 633.825 311.601 633.322 287.201 633.594C284.54 633.898 275.334 633.61 274.615 629.457C272.8 618.974 296.396 613.002 298.183 602.137C300.517 587.951 299.671 570.313 299.653 557.24L299.599 497.285L299.569 456.234C299.556 445.563 299.798 436.175 298.376 425.446C296.716 412.915 262.529 400.535 281.401 391.096Z"/><path fill="#ff8151" d="M742.195 600.87C743.099 603.296 743.962 605.229 743.245 607.766L742.498 608.125C740.956 607.407 740.493 606.041 739.628 604.484L742.195 600.87Z"/><path fill="#ff8151" d="M706.53 402.202C707.816 400.809 709.218 399.94 711.165 400.286L711.935 401.124C711.745 403.144 711.48 402.882 710.108 404.817L706.53 402.202Z"/><path fill="#ff8151" d="M494.098 607.661C495.735 608.512 495.113 607.919 496.047 609.491C495.609 611.459 496.007 610.524 494.426 612.211C493.056 611.695 493.055 611.804 492.169 610.674C492.507 608.944 492.71 609.208 494.098 607.661Z"/></svg>